<svg class="coupon-card--arrow--34HDGeI" viewBox="0 0 1024 1024" version="1.1" xmlns="http://www.w3.org/2000/svg" width="18" height="18" style="margin-right: 2px;"><path d="M512 0c282.784 0 512 229.216 512 512s-229.216 512-512 512S0 794.784 0 512 229.216 0 512 0z m89.184 319.52a33.376 33.376 0 0 0-47.232 47.232l112.32 112.288-399.808-0.384-3.232 0.192a33.376 33.376 0 0 0 3.904 66.56l399.2 0.416-112.384 112.352a33.408 33.408 0 0 0-2.304 44.704l2.304 2.528a33.376 33.376 0 0 0 47.232 0l148.352-148.352A62.72 62.72 0 0 0 768 512.48a62.72 62.72 0 0 0-18.464-44.608z" fill="#ffffff"></path></svg>