<svg xmlns="http://www.w3.org/2000/svg" viewBox="0 0 1024 1024" width="1em" height="1em" fill="currentColor" aria-hidden="false" focusable="false"><path d="M607.338667 128c94.933333 0 183.957333 38.613333 249.642666 106.026667C926.826667 305.642667 960 382.208 960 488.96c0 110.976-37.312 209.301333-103.317333 277.034667-64.661333 66.325333-150.314667 106.133333-240.874667 108.544l-8.789333 0.128h-154.453334c-35.818667 0-71.530667 3.584-106.624 10.666666l-13.12 2.816-137.514666 31.402667a53.12 53.12 0 0 1-64.085334-61.248l0.746667-3.413333 24.789333-99.306667-4.565333-5.333333c-52.224-62.762667-83.84-148.266667-87.786667-241.514667l-0.298666-10.026667L64 488.96c0-106.730667 33.173333-183.296 103.018667-254.933333 63.616-65.28 149.162667-103.594667 240.768-105.92L416.64 128h190.677333z m0 64h-190.677334c-77.44 0-150.016 31.488-203.818666 86.698667C154.304 338.730667 128 399.466667 128 488.96c0 94.4 32.682667 179.733333 86.912 235.370667a32 32 0 0 1 8.768 26.858666l-0.64 3.242667-24.682667 98.752 120.213334-27.413333a602.133333 602.133333 0 0 1 103.957333-14.357334l15.018667-0.554666 15.018666-0.192h154.453334c75.946667 0 148.757333-32.853333 203.818666-89.365334C864.810667 665.962667 896 583.744 896 488.981333c0-89.514667-26.304-150.250667-84.842667-210.282666C757.354667 223.488 684.8 192 607.36 192zM704 469.333333a42.666667 42.666667 0 1 1 0 85.333334 42.666667 42.666667 0 0 1 0-85.333334z m-192 0a42.666667 42.666667 0 1 1 0 85.333334 42.666667 42.666667 0 0 1 0-85.333334z m-192 0a42.666667 42.666667 0 1 1 0 85.333334 42.666667 42.666667 0 0 1 0-85.333334z"></path></svg>