<svg xmlns="http://www.w3.org/2000/svg" viewBox="0 0 1024 1024" width="1em" height="1em" fill="currentColor" aria-hidden="false" focusable="false"><path d="M669.930667 139.797333a96 96 0 0 1 135.68 0.106667l78.890666 78.912a96 96 0 0 1 0.725334 135.04L349.12 901.333333A53.333333 53.333333 0 0 1 311.04 917.333333H160a53.333333 53.333333 0 0 1-53.333333-53.333333v-140.458667a53.333333 53.333333 0 0 1 15.658666-37.781333zM864 853.333333a32 32 0 0 1 3.072 63.850667L864 917.333333h-320a32 32 0 0 1-3.072-63.850666L544 853.333333h320zM605.973333 293.888L170.666667 727.936l0.021333 125.376h135.872l424.896-433.92-125.482667-125.504z m154.368-108.736a32 32 0 0 0-45.226666-0.042667l-63.829334 63.594667 124.949334 124.928 63.253333-64.554667a32 32 0 0 0 3.84-40.021333l-1.898667-2.56-2.176-2.432z"></path></svg>