<svg width="7.19505061px" height="12.7559902px" viewBox="0 0 7.19505061 12.7559902" version="1.1" xmlns="http://www.w3.org/2000/svg" xmlns:xlink="http://www.w3.org/1999/xlink"><g stroke="none" stroke-width="1" fill="none" fill-rule="evenodd"><g transform="translate(-27.4355, -228.6251)" fill="#191919" fill-rule="nonzero"><g transform="translate(20, 223)"><g transform="translate(12, 12) scale(-1, 1) rotate(-360) translate(-12, -12)"><path d="M9.705,5.955 C10.1125962,5.54704087 10.7626703,5.51335492 11.21025,5.877 L11.29575,5.95425 L16.0155,10.674 C16.7109355,11.3696617 16.7505517,12.4844794 16.10625,13.22775 L16.0155,13.32525 L11.29575,18.04575 C10.8731181,18.4746389 10.1877176,18.4947155 9.74070597,18.0913001 C9.29369434,17.6878846 9.24357735,17.0040242 9.627,16.53975 L9.70425,16.45425 L14.16,12 L9.705,7.545 C9.29726698,7.13720577 9.26390545,6.48714188 9.62775,6.03975 L9.705,5.95425 L9.705,5.955 Z"/></g></g></g></g></svg>